<?xml version="1.0" encoding="utf-8"?>
<svg viewBox="0 -3.93 172.359 45.393" xmlns="http://www.w3.org/2000/svg">
  <path d="M 10.764 26.801 L 18.626 9.441 L 21.081 9.441 L 28.967 26.801 L 26.363 26.801 L 19.345 10.83 L 20.337 10.83 L 13.319 26.801 Z M 14.112 22.461 L 14.782 20.477 L 24.553 20.477 L 25.272 22.461 Z" style="fill: rgb(51, 51, 51);"/>
  <path d="M 31.188 26.801 L 31.188 13.657 L 33.47 13.657 L 33.47 17.228 L 33.246 16.335 Q 33.792 14.971 35.082 14.252 Q 36.371 13.533 38.256 13.533 L 38.256 15.839 Q 38.107 15.815 37.971 15.815 Q 37.834 15.815 37.71 15.815 Q 35.801 15.815 34.685 16.955 Q 33.569 18.096 33.569 20.254 L 33.569 26.801 Z" style="fill: rgb(51, 51, 51);"/>
  <path d="M 46.234 26.95 Q 44.25 26.95 43.159 25.883 Q 42.067 24.817 42.067 22.833 L 42.067 10.78 L 44.448 10.78 L 44.448 22.734 Q 44.448 23.8 44.981 24.371 Q 45.515 24.941 46.507 24.941 Q 47.623 24.941 48.367 24.321 L 49.111 26.032 Q 48.565 26.503 47.809 26.727 Q 47.052 26.95 46.234 26.95 Z M 39.835 15.616 L 39.835 13.657 L 48.218 13.657 L 48.218 15.616 Z" style="fill: rgb(51, 51, 51);"/>
  <path d="M 51.987 26.801 L 51.987 13.657 L 54.368 13.657 L 54.368 26.801 Z M 53.177 11.127 Q 52.483 11.127 52.024 10.681 Q 51.565 10.235 51.565 9.59 Q 51.565 8.92 52.024 8.474 Q 52.483 8.027 53.177 8.027 Q 53.872 8.027 54.33 8.461 Q 54.789 8.895 54.789 9.54 Q 54.789 10.21 54.343 10.669 Q 53.896 11.127 53.177 11.127 Z" style="fill: rgb(51, 51, 51);"/>
  <path d="M 58.726 26.801 L 58.726 9.441 L 62.05 9.441 L 69.44 21.692 L 67.679 21.692 L 74.946 9.441 L 78.244 9.441 L 78.294 26.801 L 74.524 26.801 L 74.499 15.219 L 75.194 15.219 L 69.39 24.966 L 67.58 24.966 L 61.653 15.219 L 62.496 15.219 L 62.496 26.801 Z" style="fill: rgb(51, 51, 51);"/>
  <path d="M 90.312 26.801 L 90.312 24.197 L 90.064 23.627 L 90.064 18.964 Q 90.064 17.724 89.307 17.03 Q 88.551 16.335 86.988 16.335 Q 85.922 16.335 84.893 16.67 Q 83.864 17.005 83.144 17.575 L 81.756 14.872 Q 82.847 14.103 84.384 13.682 Q 85.922 13.26 87.509 13.26 Q 90.56 13.26 92.246 14.699 Q 93.932 16.137 93.932 19.187 L 93.932 26.801 Z M 86.244 26.999 Q 84.682 26.999 83.566 26.466 Q 82.45 25.933 81.855 25.015 Q 81.26 24.098 81.26 22.957 Q 81.26 21.767 81.842 20.874 Q 82.425 19.981 83.69 19.473 Q 84.955 18.964 86.988 18.964 L 90.535 18.964 L 90.535 21.221 L 87.41 21.221 Q 86.046 21.221 85.538 21.667 Q 85.029 22.114 85.029 22.783 Q 85.029 23.527 85.612 23.961 Q 86.195 24.395 87.212 24.395 Q 88.179 24.395 88.948 23.937 Q 89.716 23.478 90.064 22.585 L 90.659 24.371 Q 90.237 25.66 89.121 26.33 Q 88.005 26.999 86.244 26.999 Z" style="fill: rgb(51, 51, 51);"/>
  <path d="M 102.882 26.999 Q 100.526 26.999 99.211 25.797 Q 97.897 24.594 97.897 22.213 L 97.897 10.507 L 101.766 10.507 L 101.766 22.163 Q 101.766 23.007 102.212 23.465 Q 102.659 23.924 103.427 23.924 Q 104.345 23.924 104.99 23.428 L 106.031 26.156 Q 105.436 26.578 104.605 26.789 Q 103.775 26.999 102.882 26.999 Z M 95.839 16.732 L 95.839 13.756 L 105.089 13.756 L 105.089 16.732 Z" style="fill: rgb(51, 51, 51);"/>
  <path d="M 114.234 26.999 Q 112.077 26.999 110.39 26.119 Q 108.704 25.239 107.749 23.676 Q 106.794 22.114 106.794 20.13 Q 106.794 18.121 107.749 16.571 Q 108.704 15.021 110.39 14.141 Q 112.077 13.26 114.234 13.26 Q 116.342 13.26 117.905 14.141 Q 119.467 15.021 120.211 16.658 L 117.21 18.27 Q 116.689 17.327 115.908 16.881 Q 115.127 16.435 114.209 16.435 Q 113.217 16.435 112.424 16.881 Q 111.63 17.327 111.171 18.146 Q 110.713 18.964 110.713 20.13 Q 110.713 21.295 111.171 22.114 Q 111.63 22.932 112.424 23.379 Q 113.217 23.825 114.209 23.825 Q 115.127 23.825 115.908 23.391 Q 116.689 22.957 117.21 21.99 L 120.211 23.627 Q 119.467 25.239 117.905 26.119 Q 116.342 26.999 114.234 26.999 Z" style="fill: rgb(51, 51, 51);"/>
  <path d="M 130.444 13.26 Q 132.031 13.26 133.283 13.893 Q 134.536 14.525 135.255 15.827 Q 135.974 17.129 135.974 19.163 L 135.974 26.801 L 132.105 26.801 L 132.105 19.758 Q 132.105 18.146 131.399 17.377 Q 130.692 16.608 129.402 16.608 Q 128.485 16.608 127.753 16.993 Q 127.021 17.377 126.612 18.171 Q 126.203 18.964 126.203 20.204 L 126.203 26.801 L 122.334 26.801 L 122.334 8.399 L 126.203 8.399 L 126.203 17.154 L 125.335 16.038 Q 126.054 14.699 127.393 13.979 Q 128.733 13.26 130.444 13.26 Z" style="fill: rgb(51, 51, 51);"/>
  <path d="M 140.518 26.95 Q 139.824 26.95 139.328 26.466 Q 138.832 25.983 138.832 25.239 Q 138.832 24.495 139.328 24.023 Q 139.824 23.552 140.518 23.552 Q 141.188 23.552 141.671 24.023 Q 142.155 24.495 142.155 25.239 Q 142.155 25.983 141.671 26.466 Q 141.188 26.95 140.518 26.95 Z" style="fill: rgb(51, 51, 51);"/>
  <path d="M 153.982 26.801 L 153.982 24.023 L 153.858 23.503 L 153.858 18.766 Q 153.858 17.253 152.978 16.422 Q 152.098 15.591 150.337 15.591 Q 149.171 15.591 148.055 15.976 Q 146.939 16.36 146.17 17.005 L 145.178 15.219 Q 146.195 14.401 147.621 13.967 Q 149.047 13.533 150.61 13.533 Q 153.313 13.533 154.776 14.847 Q 156.239 16.162 156.239 18.865 L 156.239 26.801 Z M 149.667 26.95 Q 148.204 26.95 147.1 26.454 Q 145.997 25.958 145.402 25.077 Q 144.806 24.197 144.806 23.081 Q 144.806 22.015 145.315 21.147 Q 145.823 20.279 146.976 19.758 Q 148.13 19.237 150.089 19.237 L 154.255 19.237 L 154.255 20.948 L 150.188 20.948 Q 148.402 20.948 147.782 21.543 Q 147.162 22.139 147.162 22.982 Q 147.162 23.949 147.931 24.532 Q 148.7 25.115 150.064 25.115 Q 151.403 25.115 152.408 24.519 Q 153.412 23.924 153.858 22.783 L 154.33 24.42 Q 153.858 25.586 152.668 26.268 Q 151.478 26.95 149.667 26.95 Z" style="fill: rgb(51, 51, 51);"/>
  <path d="M 160.637 26.801 L 160.637 13.657 L 163.018 13.657 L 163.018 26.801 Z M 161.827 11.127 Q 161.133 11.127 160.674 10.681 Q 160.215 10.235 160.215 9.59 Q 160.215 8.92 160.674 8.474 Q 161.133 8.027 161.827 8.027 Q 162.522 8.027 162.981 8.461 Q 163.439 8.895 163.439 9.54 Q 163.439 10.21 162.993 10.669 Q 162.547 11.127 161.827 11.127 Z" style="fill: rgb(51, 51, 51);"/>
</svg>